<svg xmlns="http://www.w3.org/2000/svg" xmlns:xlink="http://www.w3.org/1999/xlink" width="500" zoomAndPan="magnify" viewBox="0 0 375 374.999991" height="500" preserveAspectRatio="xMidYMid meet" version="1.0"><defs><clipPath id="dec4cdce0a"><path d="M 6.976562 6.976562 L 368.023438 6.976562 L 368.023438 368.023438 L 6.976562 368.023438 Z M 6.976562 6.976562 " clip-rule="nonzero"/></clipPath><clipPath id="f6358648fd"><path d="M 187.5 6.976562 C 87.796875 6.976562 6.976562 87.796875 6.976562 187.5 C 6.976562 287.203125 87.796875 368.023438 187.5 368.023438 C 287.203125 368.023438 368.023438 287.203125 368.023438 187.5 C 368.023438 87.796875 287.203125 6.976562 187.5 6.976562 Z M 187.5 6.976562 " clip-rule="nonzero"/></clipPath><clipPath id="870fe4d499"><path d="M 0.976562 0.976562 L 362.023438 0.976562 L 362.023438 362.023438 L 0.976562 362.023438 Z M 0.976562 0.976562 " clip-rule="nonzero"/></clipPath><clipPath id="edc84da4a1"><path d="M 181.5 0.976562 C 81.796875 0.976562 0.976562 81.796875 0.976562 181.5 C 0.976562 281.203125 81.796875 362.023438 181.5 362.023438 C 281.203125 362.023438 362.023438 281.203125 362.023438 181.5 C 362.023438 81.796875 281.203125 0.976562 181.5 0.976562 Z M 181.5 0.976562 " clip-rule="nonzero"/></clipPath><clipPath id="d4bd35d4e0"><rect x="0" width="363" y="0" height="363"/></clipPath><clipPath id="01ed7ff21c"><path d="M 70.609375 89.617188 L 315.109375 89.617188 L 315.109375 283 L 70.609375 283 Z M 70.609375 89.617188 " clip-rule="nonzero"/></clipPath><clipPath id="dd0e12602b"><path d="M 80 248 L 159 248 L 159 304.867188 L 80 304.867188 Z M 80 248 " clip-rule="nonzero"/></clipPath></defs><g clip-path="url(#dec4cdce0a)"><g clip-path="url(#f6358648fd)"><g transform="matrix(1, 0, 0, 1, 6, 6)"><g clip-path="url(#d4bd35d4e0)"><g clip-path="url(#870fe4d499)"><g clip-path="url(#edc84da4a1)"><path fill="#f6f6e9" d="M 0.976562 0.976562 L 362.023438 0.976562 L 362.023438 362.023438 L 0.976562 362.023438 Z M 0.976562 0.976562 " fill-opacity="1" fill-rule="nonzero"/></g></g></g></g></g></g><g clip-path="url(#01ed7ff21c)"><path fill="#457d58" d="M 160.949219 192.222656 C 167.34375 241.136719 165.722656 271.308594 156.117188 282.710938 C 175.800781 281.148438 179.628906 255.75 167.636719 206.515625 C 164.71875 171.894531 180.511719 152.035156 214.957031 146.90625 C 202.582031 151.5625 191.945312 158.429688 183.136719 167.472656 C 167.460938 186.417969 170.347656 199.265625 191.769531 205.953125 C 272.386719 216.179688 313.519531 177.492188 315.226562 89.863281 C 302.644531 114.203125 279.101562 124.984375 244.628906 122.214844 C 202.554688 122.273438 176.09375 139.453125 165.28125 173.71875 C 163.160156 148.054688 148.015625 106.71875 73.230469 92.074219 C 58.324219 171.804688 110.917969 193.785156 141.117188 196.289062 C 156.734375 197.175781 158.328125 184.503906 145.890625 158.28125 C 155.171875 164.851562 160.210938 176.136719 160.949219 192.222656 Z M 160.949219 192.222656 " fill-opacity="1" fill-rule="evenodd"/></g><g clip-path="url(#dd0e12602b)"><path fill="#272727" d="M 150.605469 273.3125 C 154.9375 265.03125 145.65625 255.808594 131.011719 253.921875 C 150.546875 254.542969 157.882812 263.144531 150.605469 273.3125 Z M 120.199219 248.5625 C 93.386719 253.921875 80.15625 265.796875 80.480469 284.15625 C 85.726562 315.269531 169.640625 307.695312 148.691406 283.183594 C 173.675781 255.21875 147.425781 246.792969 120.199219 248.5625 Z M 120.199219 248.5625 " fill-opacity="1" fill-rule="evenodd"/></g></svg>